<svg width="150" height="154" viewBox="0 0 150 154" fill="none" xmlns="http://www.w3.org/2000/svg">
<g filter="url(#filter0_d_4_3)">
<path fill-rule="evenodd" clip-rule="evenodd" d="M62.5 1.55299C35.777 6.48499 16.031 22.845 7.69099 46.963C3.81299 58.177 2.87499 74.423 5.38899 86.832C14.379 131.195 53.438 155.006 96.706 142.5C109.096 138.918 117.117 134.136 126.611 124.669C140.103 111.215 146 95.888 146 74.27C146 64.48 144.764 53.511 143.52 52.268C142.934 51.681 70.781 67.114 69.719 68.052C69.091 68.608 71.652 83.68 72.585 84.917C72.724 85.102 80.342 83.606 89.512 81.593C98.683 79.581 106.429 78.177 106.727 78.474C107.024 78.772 106.064 81.474 104.593 84.479C100.196 93.468 92.069 99.258 81.532 100.911C62.682 103.867 48.097 90.876 47.167 70.303C46.835 62.955 47.088 61.421 49.426 56.643C52.516 50.328 58.398 44.679 64.878 41.806C71.412 38.908 82.879 38.86 89.064 41.705L93.629 43.804L96.814 40.01C98.566 37.923 100 35.791 100 35.271C100 33.774 90.115 29.921 83.26 28.747C70.752 26.605 56.089 31.228 46.85 40.227C27.87 58.715 33.234 95.333 56.759 107.872C69.05 114.423 83.338 114.28 96.952 107.469C107.758 102.063 115.537 92.003 118.079 80.147C119.107 75.354 119.301 75.139 123.323 74.338L127.5 73.507L127.807 77.859C128.618 89.337 122.388 103.729 112.742 112.66C96.244 127.933 69.868 131.602 50.575 121.307C43.618 117.595 34.119 107.844 30.203 100.395C23.51 87.664 21.164 69.55 24.533 56.616C30.346 34.298 51.439 19.056 76.46 19.093C85.842 19.107 92.355 20.651 100 24.675C103.025 26.267 105.773 27.701 106.107 27.861C106.441 28.021 109.346 24.936 112.563 21.004C119.405 12.641 119.695 13.308 106.5 7.03898C93.077 0.659986 77.715 -1.25501 62.5 1.55299Z" fill="white"/>
</g>
<defs>
<filter id="filter0_d_4_3" x="-0.00994873" y="0.294006" width="150.01" height="153.521" filterUnits="userSpaceOnUse" color-interpolation-filters="sRGB">
<feFlood flood-opacity="0" result="BackgroundImageFix"/>
<feColorMatrix in="SourceAlpha" type="matrix" values="0 0 0 0 0 0 0 0 0 0 0 0 0 0 0 0 0 0 127 0" result="hardAlpha"/>
<feOffset dy="4"/>
<feGaussianBlur stdDeviation="2"/>
<feComposite in2="hardAlpha" operator="out"/>
<feColorMatrix type="matrix" values="0 0 0 0 0 0 0 0 0 0 0 0 0 0 0 0 0 0 0.25 0"/>
<feBlend mode="normal" in2="BackgroundImageFix" result="effect1_dropShadow_4_3"/>
<feBlend mode="normal" in="SourceGraphic" in2="effect1_dropShadow_4_3" result="shape"/>
</filter>
</defs>
</svg>
