<svg width="409" height="154" viewBox="0 0 409 154" fill="none" xmlns="http://www.w3.org/2000/svg">
<g filter="url(#filter0_d_1_27)">
<path fill-rule="evenodd" clip-rule="evenodd" d="M62.5 1.55299C35.777 6.48499 16.031 22.845 7.69099 46.963C3.81299 58.177 2.87499 74.423 5.38899 86.832C14.379 131.195 53.438 155.006 96.706 142.5C109.096 138.918 117.117 134.136 126.611 124.669C140.103 111.215 146 95.888 146 74.27C146 64.48 144.764 53.511 143.52 52.268C142.934 51.681 70.781 67.114 69.719 68.052C69.091 68.608 71.652 83.68 72.585 84.917C72.724 85.102 80.342 83.606 89.512 81.593C98.683 79.581 106.429 78.177 106.727 78.474C107.024 78.772 106.064 81.474 104.593 84.479C100.196 93.468 92.069 99.258 81.532 100.911C62.682 103.867 48.097 90.876 47.167 70.303C46.835 62.955 47.088 61.421 49.426 56.643C52.516 50.328 58.398 44.679 64.878 41.806C71.412 38.908 82.879 38.86 89.064 41.705L93.629 43.804L96.814 40.01C98.566 37.923 100 35.791 100 35.271C100 33.774 90.115 29.921 83.26 28.747C70.752 26.605 56.089 31.228 46.85 40.227C27.87 58.715 33.234 95.333 56.759 107.872C69.05 114.423 83.338 114.28 96.952 107.469C107.758 102.063 115.537 92.003 118.079 80.147C119.107 75.354 119.301 75.139 123.323 74.338L127.5 73.507L127.807 77.859C128.618 89.337 122.388 103.729 112.742 112.66C96.244 127.933 69.868 131.602 50.575 121.307C43.618 117.595 34.119 107.844 30.203 100.395C23.51 87.664 21.164 69.55 24.533 56.616C30.346 34.298 51.439 19.056 76.46 19.093C85.842 19.107 92.355 20.651 100 24.675C103.025 26.267 105.773 27.701 106.107 27.861C106.441 28.021 109.346 24.936 112.563 21.004C119.405 12.641 119.695 13.308 106.5 7.03898C93.077 0.659984 77.715 -1.25501 62.5 1.55299ZM170.45 19.488C163.559 22.49 160.302 29.463 161.239 39.212C162.327 50.539 171.983 56.204 184.914 53.102L190 51.882V43.481V35.081H183.427C177.707 35.081 176.896 35.308 177.185 36.831C177.427 38.108 178.665 38.664 181.759 38.888L186 39.196V43.532C186 48.549 185.218 49.081 177.841 49.081C173.683 49.081 172.369 48.604 169.997 46.231C164.82 41.055 164.82 31.107 169.997 25.931C172.254 23.673 173.745 23.082 177.173 23.087C179.553 23.091 182.82 23.782 184.434 24.623C187.74 26.347 190 25.917 190 23.563C190 21.407 182.423 18.121 177.5 18.142C175.3 18.152 172.128 18.757 170.45 19.488ZM199.701 18.713C199.316 19.099 199 25.232 199 32.343C199 42.735 199.335 45.839 200.706 48.161C205.616 56.473 220.869 55.802 225.264 47.081C226.72 44.192 226.982 41.4 226.764 31.081C226.516 19.336 226.379 18.581 224.5 18.581C222.633 18.581 222.467 19.414 222 31.081C221.354 47.232 220.334 49.081 212.073 49.081C205.555 49.081 204.58 46.987 204 31.742C203.589 20.937 203.225 18.55 201.951 18.307C201.099 18.145 200.087 18.327 199.701 18.713ZM240.121 19.729C233.788 22.966 232.34 32.292 237.631 35.759C238.983 36.645 242.876 38.013 246.282 38.8C253.159 40.389 255 41.497 255 44.048C255 48.668 244.83 50.914 239 47.581C235.528 45.596 234 45.742 234 48.058C234 50.802 237.832 53.037 243.736 53.736C252.699 54.798 260 50.463 260 44.081C260 39.666 256.675 36.433 250.757 35.095C242.741 33.283 242.125 33.063 240.506 31.444C238.463 29.401 238.613 27.468 241 25.081C243.453 22.628 249.794 22.406 254.079 24.622C259.113 27.225 261.152 23.721 256.411 20.615C252.543 18.08 244.23 17.628 240.121 19.729ZM309.277 19.288C307.065 22.042 294.884 51.335 295.396 52.67C296.45 55.417 298.932 54.023 300.897 49.581L302.888 45.081H311.245H319.601L321.788 49.581C323.898 53.925 326.549 55.421 327.543 52.828C328.289 50.887 313.64 18.635 311.857 18.292C311.01 18.129 309.849 18.577 309.277 19.288ZM331.701 18.713C330.386 20.029 331.003 21.884 338.131 38.031C344.209 51.8 345.559 54.141 347.273 53.883C348.82 53.651 350.861 50.001 356.109 38.081C362.962 22.517 364.185 18.081 361.622 18.081C359.517 18.081 358.662 19.564 352.68 33.581L347.132 46.581L345.645 43.081C335.065 18.176 334.036 16.378 331.701 18.713ZM376.309 19.972C370.641 22.621 367.994 27.829 368.016 36.291C368.047 47.943 374.409 54.586 384.791 53.807C394.387 53.086 399.5 46.925 399.5 36.081C399.5 28.876 397.49 24.273 392.824 20.796C388.964 17.918 381.5 17.546 376.309 19.972ZM262.516 20.055C261.23 22.136 263.266 23.081 269.033 23.081H274.948L275.224 38.331C275.486 52.822 275.599 53.581 277.5 53.581C279.4 53.581 279.514 52.822 279.776 38.378L280.052 23.175L286.276 22.878C291.01 22.652 292.5 22.222 292.5 21.081C292.5 19.828 290.08 19.535 277.825 19.305C268.571 19.13 262.916 19.407 262.516 20.055ZM390.497 25.331C393.971 28.327 395.38 34.688 393.884 40.627C392.44 46.362 389.118 49.081 383.552 49.081C380.195 49.081 378.797 48.478 376.437 46.015C373.77 43.232 373.5 42.318 373.5 36.081C373.5 29.844 373.77 28.93 376.437 26.147C380.205 22.214 386.462 21.851 390.497 25.331ZM317.08 38.831C317.928 41.024 317.784 41.081 311.408 41.081C303.936 41.081 304.077 41.602 308.738 31.232L311.278 25.581L313.744 31.081C315.101 34.106 316.602 37.593 317.08 38.831ZM178.206 87.208C172.534 90.016 170 94.917 170 103.081C170 111.618 172.692 116.615 178.728 119.285C182.225 120.832 184.521 121.179 188.291 120.733C193.803 120.08 198 117.829 198 115.527C198 113.237 195.367 112.711 192.824 114.492C189.014 117.16 182.556 116.55 178.766 113.163C175.654 110.382 175.5 109.908 175.5 103.081C175.5 96.254 175.654 95.78 178.766 92.999C182.556 89.612 189.014 89.002 192.824 91.67C195.398 93.473 198 92.917 198 90.563C198 88.523 190.545 85.131 186 85.104C184.075 85.092 180.568 86.039 178.206 87.208ZM214.804 89.831C213.658 92.444 210.352 99.945 207.457 106.5C204.561 113.056 202.431 119.04 202.722 119.799C203.691 122.324 206.476 120.627 208.421 116.327L210.342 112.081H218.684H227.026L229.212 116.581C231.453 121.193 235 122.86 235 119.301C235 117.395 222.508 88.421 220.785 86.331C218.829 83.957 216.88 85.098 214.804 89.831ZM242.5 86C242 86.5 242 95 242 104C242.246 118.629 242 121 244 121C246 121 246 121 246.22 108.504L246.5 95.792L251.256 104.819C256.234 114.267 258.484 117.03 259.945 115.489C260.419 114.989 263.085 110.307 265.87 105.083L270.934 95.585L271 108C271 121 272 121 273.5 120.886C275 121 275 120.886 275 103.154C275 88.47 275.434 85 273.5 85C271.566 85 271.5 85 264.464 98.416L258.737 109.252L255.786 103.916C254.164 100.982 251.292 95.543 249.406 91.831C245 85 245.5 85 242.5 86ZM347 86.081C347 86.081 347 86.581 347 103.581V120.081H361C369 120.081 368.819 120.081 368.819 118.364C368.819 116.117 368.819 116.081 360 116.081L351.052 116.004L351 101.081C351 86.081 351 86.081 347 86.081ZM382.45 86.432C375.517 89.578 372.303 96.479 373.239 106.212C374.106 115.24 379.965 120.581 389 120.581C395.324 120.581 398.52 118.944 402.438 113.697C404.111 111.456 404.5 109.455 404.5 103.085C404.5 94.638 403.287 91.878 397.763 87.753C394.453 85.282 386.498 84.596 382.45 86.432ZM285.226 103.331C285.488 119.823 285.588 120.581 287.5 120.581C289.27 120.581 289.534 119.817 289.793 113.938L290.086 107.295L297.651 106.913C304.45 106.57 305.458 106.249 307.608 103.75C309.998 100.971 310.87 94.512 309.379 90.626C308.17 87.476 303.457 86.081 294.026 86.081H284.953L285.226 103.331ZM317 103.081V120.081H328C338.333 120.081 339 119.96 339 118.081C339 116.238 338.333 116.081 330.5 116.081H322V110.581V105.081H330C337.333 105.081 338 104.914 338 103.081C338 101.248 337.333 101.081 330 101.081H322V95.581V90.081H330.5C338.333 90.081 339 89.924 339 88.081C339 86.202 338.333 86.081 328 86.081H317V103.081ZM302.687 90.867C304.626 92.099 305.815 96.392 304.899 98.846C303.859 101.63 300.275 103.081 294.435 103.081H290V96.581V90.081L295.75 90.096C298.913 90.105 302.034 90.451 302.687 90.867ZM396.003 92.931C403.891 100.818 399.274 116.081 389 116.081C385.767 116.081 384.215 115.45 381.997 113.231C374.109 105.344 378.726 90.081 389 90.081C392.233 90.081 393.785 90.712 396.003 92.931ZM222.042 99.674C223.669 103.3 225 106.675 225 107.174C225 107.673 222.104 108.081 218.564 108.081H212.127L215.258 100.581C216.98 96.456 218.545 93.081 218.736 93.081C218.927 93.081 220.415 96.048 222.042 99.674Z" fill="#26252B"/>
</g>
<defs>
<filter id="filter0_d_1_27" x="-0.00994873" y="0.294006" width="408.51" height="153.521" filterUnits="userSpaceOnUse" color-interpolation-filters="sRGB">
<feFlood flood-opacity="0" result="BackgroundImageFix"/>
<feColorMatrix in="SourceAlpha" type="matrix" values="0 0 0 0 0 0 0 0 0 0 0 0 0 0 0 0 0 0 127 0" result="hardAlpha"/>
<feOffset dy="4"/>
<feGaussianBlur stdDeviation="2"/>
<feComposite in2="hardAlpha" operator="out"/>
<feColorMatrix type="matrix" values="0 0 0 0 0 0 0 0 0 0 0 0 0 0 0 0 0 0 0.25 0"/>
<feBlend mode="normal" in2="BackgroundImageFix" result="effect1_dropShadow_1_27"/>
<feBlend mode="normal" in="SourceGraphic" in2="effect1_dropShadow_1_27" result="shape"/>
</filter>
</defs>
</svg>
