<svg width="150" height="154" viewBox="0 0 150 154" fill="none" xmlns="http://www.w3.org/2000/svg">
<g filter="url(#filter0_d_4_3)">
<path fill-rule="evenodd" clip-rule="evenodd" d="M62.4999 1.55299C35.7769 6.48499 16.0309 22.845 7.69093 46.963C3.81293 58.177 2.87493 74.423 5.38893 86.832C14.3789 131.195 53.4379 155.006 96.7059 142.5C109.096 138.918 117.117 134.136 126.611 124.669C140.103 111.215 146 95.888 146 74.27C146 64.48 144.764 53.511 143.52 52.268C142.934 51.681 70.7809 67.114 69.7189 68.052C69.0909 68.608 71.6519 83.68 72.5849 84.917C72.7239 85.102 80.3419 83.606 89.5119 81.593C98.6829 79.581 106.429 78.177 106.727 78.474C107.024 78.772 106.064 81.474 104.593 84.479C100.196 93.468 92.0689 99.258 81.5319 100.911C62.6819 103.867 48.0969 90.876 47.1669 70.303C46.8349 62.955 47.0879 61.421 49.4259 56.643C52.5159 50.328 58.3979 44.679 64.8779 41.806C71.4119 38.908 82.8789 38.86 89.0639 41.705L93.6289 43.804L96.8139 40.01C98.5659 37.923 99.9999 35.791 99.9999 35.271C99.9999 33.774 90.1149 29.921 83.2599 28.747C70.7519 26.605 56.0889 31.228 46.8499 40.227C27.8699 58.715 33.2339 95.333 56.7589 107.872C69.0499 114.423 83.3379 114.28 96.9519 107.469C107.758 102.063 115.537 92.003 118.079 80.147C119.107 75.354 119.301 75.139 123.323 74.338L127.5 73.507L127.807 77.859C128.618 89.337 122.388 103.729 112.742 112.66C96.2439 127.933 69.8679 131.602 50.5749 121.307C43.6179 117.595 34.1189 107.844 30.2029 100.395C23.5099 87.664 21.1639 69.55 24.5329 56.616C30.3459 34.298 51.4389 19.056 76.4599 19.093C85.8419 19.107 92.3549 20.651 99.9999 24.675C103.025 26.267 105.773 27.701 106.107 27.861C106.441 28.021 109.346 24.936 112.563 21.004C119.405 12.641 119.695 13.308 106.5 7.03898C93.0769 0.659986 77.7149 -1.25501 62.4999 1.55299Z" fill="#26252B"/>
</g>
<defs>
<filter id="filter0_d_4_3" x="-0.0100098" y="0.294006" width="150.01" height="153.521" filterUnits="userSpaceOnUse" color-interpolation-filters="sRGB">
<feFlood flood-opacity="0" result="BackgroundImageFix"/>
<feColorMatrix in="SourceAlpha" type="matrix" values="0 0 0 0 0 0 0 0 0 0 0 0 0 0 0 0 0 0 127 0" result="hardAlpha"/>
<feOffset dy="4"/>
<feGaussianBlur stdDeviation="2"/>
<feComposite in2="hardAlpha" operator="out"/>
<feColorMatrix type="matrix" values="0 0 0 0 0 0 0 0 0 0 0 0 0 0 0 0 0 0 0.25 0"/>
<feBlend mode="normal" in2="BackgroundImageFix" result="effect1_dropShadow_4_3"/>
<feBlend mode="normal" in="SourceGraphic" in2="effect1_dropShadow_4_3" result="shape"/>
</filter>
</defs>
</svg>
