<svg width="1237" height="963" viewBox="0 0 1237 963" fill="none" xmlns="http://www.w3.org/2000/svg">
<path d="M0 0H1237V963H0V0Z" fill="#A82424"/>
<path fill-rule="evenodd" clip-rule="evenodd" d="M592.66 153.33C535.566 159.658 478.139 182.175 433.786 215.625C396.683 243.607 364.371 281.205 342.945 321.329C327.212 350.791 319.229 372.448 311.614 406.329C306.995 426.883 305.812 436.586 304.574 464.098C302.912 501.02 304.735 524.363 311.656 554.829C321.777 599.375 338.679 637.591 364.951 675.329C372.686 686.44 377.157 691.724 393.802 709.426C447.268 766.287 516.369 800.861 594.57 809.877C609.095 811.552 640.624 810.577 656.807 807.954C718.163 798.006 772.157 772.603 821.16 730.629C830.995 722.205 853.298 698.763 864.259 685.329C879.054 667.196 899.466 631.298 909.061 606.536C923.425 569.467 930.388 536.548 932.16 497.329C932.879 481.396 931.407 449.551 929.062 430.329C927.28 415.727 920.466 386.439 915.334 371.329C891.801 302.033 845.882 243.098 784.081 202.869C771.421 194.629 744.278 180.626 730.16 175.052C682.594 156.273 634.564 148.686 592.66 153.33ZM606.777 162.963C602.172 163.722 593.112 167.614 593.964 168.466C594.119 168.621 598.726 168.428 604.203 168.038C613.87 167.35 614.16 167.259 614.16 164.912C614.16 161.979 613.615 161.835 606.777 162.963ZM622.016 163.343C620.704 166.762 622.329 167.515 632.303 168.11C637.706 168.433 642.315 168.508 642.545 168.277C643.407 167.415 631.979 163.029 627.373 162.454C623.665 161.992 622.458 162.192 622.016 163.343ZM647.576 165.228C650.673 168.96 669.518 173.486 671.126 170.884C671.53 170.231 671.688 169.524 671.478 169.313C671.267 169.103 666.61 167.993 661.128 166.848C655.645 165.702 650.069 164.526 648.735 164.234C646.653 163.778 646.489 163.918 647.576 165.228ZM578.16 166.349C574.86 167.092 571.035 167.736 569.66 167.78C565.898 167.9 563.868 169.437 565.421 170.99C567.157 172.726 577.855 170.811 584.827 167.516C589.655 165.234 589.876 164.996 587.16 164.996C585.51 164.996 581.46 165.605 578.16 166.349ZM553.198 172.787C550.7 175.547 551.633 176.15 556.82 175.124C561.99 174.102 562.812 171.491 558.109 171.03C556.028 170.827 554.467 171.385 553.198 172.787ZM675.14 171.861C674.066 173.598 675.67 174.525 681.091 175.301L686.021 176.006L684.477 173.667C682.777 171.094 676.379 169.856 675.14 171.861ZM545.16 173.613C540.914 174.369 526.478 178.981 526.934 179.436C527.891 180.394 545.196 177.691 546.526 176.376C548.342 174.581 547.645 173.171 545.16 173.613ZM688.66 174.207C688.66 174.964 689.232 176.059 689.931 176.639C691.315 177.788 708.472 180.35 709.292 179.53C709.72 179.102 690.962 172.829 689.254 172.829C688.927 172.829 688.66 173.449 688.66 174.207ZM601.188 185.801C597.383 189.635 594.47 192.948 594.715 193.163C601.873 199.443 613.338 206.88 613.997 205.67C614.099 205.483 614.029 199.367 613.842 192.079L613.501 178.829H610.804C608.793 178.829 606.344 180.605 601.188 185.801ZM622.285 181.954C621.941 183.673 621.66 189.748 621.66 195.454C621.66 204.976 621.816 205.829 623.558 205.829C625.275 205.829 639.104 195.901 640.906 193.375C641.334 192.774 638.722 189.454 634.774 185.579C626.768 177.722 623.331 176.724 622.285 181.954ZM588.488 180.732C585.368 181.066 582.534 181.622 582.19 181.966C581.443 182.713 589.535 189.829 591.132 189.829C592.334 189.829 600.66 181.713 600.66 180.541C600.66 179.754 597.074 179.81 588.488 180.732ZM635.795 180.521C635.996 181.007 638.294 183.355 640.902 185.737C646.161 190.541 645.765 190.583 653.094 184.425L656.029 181.96L653.594 181.444C648.411 180.347 635.445 179.675 635.795 180.521ZM563.66 184.901C558.985 185.915 552.537 187.52 549.331 188.469C543.607 190.162 543.439 190.317 540.081 196.986C538.199 200.722 536.66 204.223 536.66 204.765C536.66 205.308 538.797 206.404 541.41 207.202C544.023 208 549.586 209.878 553.774 211.377C565.022 215.403 566.919 214.801 578.384 203.558C583.486 198.554 587.658 193.981 587.656 193.395C587.65 191.688 576.084 182.818 574.029 182.943C573.001 183.006 568.335 183.887 563.66 184.901ZM654.66 187.458C651.635 189.981 649.033 192.574 648.878 193.221C648.723 193.869 652.781 198.502 657.895 203.517C669.296 214.698 671.913 215.503 683.16 211.286C687.01 209.843 692.298 208.007 694.91 207.207C697.522 206.406 699.66 205.308 699.66 204.765C699.66 204.223 698.127 200.736 696.254 197.016C692.998 190.549 692.615 190.18 687.504 188.57C682.186 186.894 663.473 182.81 661.3 182.851C660.673 182.862 657.685 184.936 654.66 187.458ZM512.762 184.912C505.752 186.288 493.216 192.674 489 197.014L485.16 200.969L495.16 196.33C500.66 193.778 508.985 190.105 513.66 188.167C518.335 186.229 522.348 184.46 522.577 184.236C523.247 183.581 517.534 183.975 512.762 184.912ZM713.749 184.251C713.981 184.484 720.687 187.426 728.651 190.79C736.614 194.155 744.037 197.486 745.145 198.193C750.041 201.317 751.137 200.927 747.66 197.299C741.696 191.075 725.103 183.829 716.812 183.829C714.895 183.829 713.517 184.019 713.749 184.251ZM527.91 195.128C522.823 196.845 518.66 198.543 518.66 198.901C518.66 199.681 529.245 203.829 531.235 203.829C532.003 203.829 533.994 201.129 535.66 197.829C537.326 194.529 538.345 191.869 537.924 191.917C537.504 191.965 532.997 193.41 527.91 195.128ZM698.66 192.851C698.66 193.365 699.853 196.217 701.311 199.19L703.962 204.596L710.384 202.429C713.916 201.238 716.823 199.828 716.842 199.296C716.862 198.764 712.779 196.886 707.769 195.123C702.759 193.36 698.66 192.338 698.66 192.851ZM584.41 202.453C580.698 206.077 577.66 209.368 577.66 209.766C577.66 210.164 580.467 209.912 583.897 209.205C587.328 208.498 592.927 207.829 596.34 207.718C602.011 207.535 605.809 206.536 604.631 205.539C599.773 201.423 592.414 195.833 591.871 195.847C591.48 195.857 588.122 198.829 584.41 202.453ZM638.16 200.405C634.86 202.892 632.022 205.319 631.853 205.799C631.684 206.278 634.159 206.927 637.353 207.241C640.547 207.554 646.535 208.435 650.66 209.198C654.785 209.962 658.36 210.403 658.605 210.179C659.087 209.738 645.555 195.812 644.687 195.856C644.397 195.87 641.46 197.917 638.16 200.405ZM473.66 202.523C459.714 210.63 457.901 212.217 461.157 213.466C462.894 214.133 470.185 209.633 476.66 203.899C481.806 199.342 480.312 198.656 473.66 202.523ZM756.66 200.36C756.66 202.499 772.603 213.985 775.063 213.618C779.032 213.027 777.368 211.181 767.815 205.579C758.322 200.013 756.66 199.235 756.66 200.36ZM506.962 203.787C504.676 205.181 502.75 207.93 500.212 213.424C498.258 217.652 496.66 221.661 496.66 222.333C496.66 223.768 514.657 229.113 517.915 228.645C519.578 228.407 521.401 225.876 525.318 218.365C528.175 212.885 530.295 208.047 530.028 207.615C529.761 207.183 528.712 206.829 527.697 206.829C526.682 206.829 522.546 205.707 518.506 204.336C514.466 202.965 510.935 201.841 510.66 201.84C510.385 201.838 508.721 202.714 506.962 203.787ZM718.928 203.851C716.601 204.885 713.077 206.035 711.098 206.407C709.119 206.778 707.3 207.604 707.055 208.243C706.81 208.881 708.84 213.662 711.566 218.866C717.219 229.657 717.666 229.901 727.061 227.354C737.761 224.453 739.66 223.703 739.66 222.376C739.66 219.127 732.631 205.945 729.839 203.956C726.25 201.401 724.48 201.384 718.928 203.851ZM487.91 212.667C482.823 215.204 478.66 217.554 478.66 217.89C478.66 218.465 489.623 221.829 491.495 221.829C492.41 221.829 498.186 209 497.539 208.404C497.33 208.212 492.997 210.131 487.91 212.667ZM738.66 208.847C738.66 210.174 744.523 221.829 745.189 221.829C747.537 221.829 757.467 218.327 757.047 217.647C756.098 216.111 738.66 207.766 738.66 208.847ZM529.95 216.996C527.77 221.029 526.365 224.48 526.828 224.664C527.292 224.849 530.706 223.853 534.416 222.451C538.125 221.05 543.747 219.119 546.91 218.16C550.073 217.202 552.66 216.15 552.66 215.824C552.66 215.339 545.837 213.069 535.538 210.126C534.356 209.788 532.84 211.653 529.95 216.996ZM691.91 212.607C687.372 214.013 683.66 215.453 683.66 215.807C683.66 216.161 686.473 217.268 689.91 218.267C693.348 219.266 699.004 221.195 702.48 222.553C705.956 223.911 709.022 224.8 709.294 224.528C710.167 223.655 702.681 209.825 701.397 209.939C700.717 210 696.448 211.2 691.91 212.607ZM450.66 217.829C448.543 219.946 448.04 221.829 449.591 221.829C450.915 221.829 457.567 217.478 457.618 216.579C457.707 214.999 452.566 215.923 450.66 217.829ZM779.66 216.641C779.66 217.673 785.235 221.829 786.62 221.829C788.476 221.829 787.72 218.984 785.437 217.386C783.073 215.729 779.66 215.289 779.66 216.641ZM603.16 217.838C581.235 219.675 554.945 225.828 532.585 234.355C500.081 246.752 460.477 274.479 436.082 301.917C417.392 322.938 409.004 335.179 397.742 357.866C382.847 387.872 374.383 416.511 370.561 449.829C368.78 465.359 368.53 471.781 369.006 489.829C369.663 514.779 371.369 528.842 376.104 548.329C382.425 574.345 396.116 606.097 410.383 627.829C434.195 664.102 469.112 696.454 504.66 715.182C541.755 734.724 582.797 745.954 617.66 746.1C631.863 746.159 636.244 745.683 657.795 741.742C691.06 735.657 732.008 718.116 758.409 698.639C766.826 692.43 780.459 680.853 790.025 671.791C825.263 638.411 854.624 584.005 862.591 537.329C866.951 511.779 867.16 509.315 867.16 483.329C867.16 457.337 866.765 452.576 862.601 428.329C855.922 389.438 836.668 345.998 813.179 316.829C782.578 278.826 744.691 250.402 703.331 234.416C669.646 221.397 633.026 215.337 603.16 217.838ZM460.822 228.965C454.048 233.44 448.156 238.053 447.728 239.215C447.3 240.378 446.655 244.61 446.294 248.62L445.638 255.912L457.399 255.273C471.489 254.508 475.614 253.587 478.371 250.59C481.099 247.625 489.978 228.101 489.347 226.456C488.964 225.459 476.005 220.811 473.648 220.826C473.367 220.828 467.595 224.49 460.822 228.965ZM754.24 223.153C750.434 224.36 747.146 225.87 746.933 226.509C746.72 227.148 747.631 229.844 748.957 232.5C750.284 235.156 752.183 239.579 753.179 242.329C755.471 248.662 759.083 252.615 763.612 253.749C765.564 254.238 772.223 254.93 778.41 255.287L789.66 255.936L789.646 248.633C789.639 244.616 789.389 240.429 789.092 239.329C788.548 237.317 766.205 221.939 762.888 221.294C761.938 221.109 758.046 221.946 754.24 223.153ZM435.209 228.258C422.66 238.162 424.226 238.958 438.91 230.138C443.382 227.452 444.66 226.145 444.66 224.257C444.66 222.921 444.323 221.864 443.91 221.907C443.497 221.949 439.582 224.808 435.209 228.258ZM791.216 222.739C790.039 224.643 791.988 226.629 799.473 231.154C806.847 235.612 810.5 236.998 809.16 234.829C808.46 233.697 793.049 221.829 792.278 221.829C792.003 221.829 791.525 222.238 791.216 222.739ZM490.241 235.608C488.256 240.297 486.884 244.386 487.191 244.694C487.499 245.002 488.654 244.689 489.757 244C490.861 243.311 496.048 240.458 501.284 237.66C506.52 234.863 510.435 232.215 509.982 231.776C509.53 231.337 505.715 230.101 501.505 229.03L493.85 227.082L490.241 235.608ZM733.851 229.226C729.831 230.429 726.656 231.844 726.796 232.371C727.159 233.743 749.095 245.676 749.48 244.711C749.656 244.27 748.468 241.078 746.84 237.619C745.211 234.159 743.575 230.317 743.202 229.079C742.83 227.841 742.218 226.876 741.843 226.934C741.467 226.992 737.871 228.023 733.851 229.226ZM417.633 244.929C410.55 248.794 403.399 255.824 399.044 263.204C397.137 266.435 395.738 269.241 395.936 269.438C396.134 269.636 402.506 263.708 410.096 256.265C417.687 248.823 423.719 242.555 423.502 242.337C423.284 242.12 420.643 243.286 417.633 244.929ZM818.66 248.474C827.668 256.647 832.094 261.043 836.488 266.184C840.8 271.228 841.635 270.169 838.101 264.139C832.803 255.097 820.801 244.414 813.66 242.381C811.91 241.883 813.411 243.712 818.66 248.474ZM434.16 249.018C430.31 252.377 426.992 255.563 426.787 256.097C426.299 257.366 440.311 256.605 441.515 255.297C442.99 253.695 443.71 242.822 442.338 242.87C441.69 242.893 438.01 245.659 434.16 249.018ZM793.66 249.329C793.66 255.751 793.693 255.829 796.41 255.838C797.923 255.842 801.583 256.137 804.545 256.493C808.022 256.911 809.794 256.781 809.545 256.127C809.055 254.84 795.414 242.87 794.41 242.846C793.997 242.837 793.66 245.754 793.66 249.329ZM449.16 259.721L445.16 260.329L444.459 268.794C444.073 273.45 443.914 277.416 444.105 277.607C444.296 277.798 446.64 276.012 449.313 273.637C451.987 271.262 456.984 267.158 460.417 264.516C463.851 261.874 466.66 259.513 466.66 259.271C466.66 258.657 454.02 258.982 449.16 259.721ZM771.81 261.018C773.268 262.289 777.508 265.804 781.232 268.829C784.956 271.854 788.881 275.229 789.954 276.329C791.89 278.315 791.9 278.267 791.389 269.519C791.106 264.674 790.713 260.553 790.517 260.362C790.321 260.171 785.435 259.721 779.66 259.361L769.16 258.707L771.81 261.018ZM427.93 260.741C421.789 261.24 420.282 261.746 417.93 264.099C415.265 266.764 415.16 267.258 415.16 277.07V287.271L423.66 287.013C438.527 286.561 438.916 286.261 440.13 274.329C440.465 271.029 440.998 266.416 441.313 264.079L441.887 259.829L438.524 259.991C436.674 260.08 431.906 260.417 427.93 260.741ZM795.45 260.504C795.218 260.958 795.508 266.12 796.094 271.976C797.556 286.576 797.817 286.829 811.459 286.829H821.947L821.409 276.274C820.664 261.688 820.645 261.671 803.516 260.293C799.311 259.955 795.682 260.05 795.45 260.504ZM407.077 275.018C402.593 279.835 396.66 287.41 396.66 288.319C396.66 289.132 409.399 288.424 410.26 287.562C410.529 287.294 410.616 283.616 410.454 279.39L410.16 271.706L407.077 275.018ZM825.66 279.605V287.626L832.719 288.335C836.602 288.725 840.006 288.816 840.284 288.538C840.8 288.022 830.341 275.449 827.322 272.957C825.797 271.697 825.66 272.244 825.66 279.605ZM382.507 281.162C376.611 288.638 375.856 290.061 377.495 290.607C378.986 291.104 383.493 285.923 386.286 280.5C390.128 273.041 388.717 273.289 382.507 281.162ZM847.66 274.988C847.66 278.458 856.787 290.829 859.347 290.829C861.274 290.829 861.004 290.062 857.46 285.473C852.03 278.442 847.66 273.767 847.66 274.988ZM415.276 291.642C414.612 292.715 414.237 308.74 414.861 309.363C415.127 309.629 417.778 307.04 420.752 303.609C423.727 300.178 427.444 295.899 429.014 294.1L431.867 290.829H423.823C419.398 290.829 415.552 291.195 415.276 291.642ZM813.248 300.817C818.025 306.356 822.04 310.762 822.169 310.609C822.298 310.455 822.124 306.054 821.782 300.829L821.16 291.329L812.861 291.038L804.562 290.747L813.248 300.817ZM399.732 292.775L391.305 293.329L382.919 305.281C376.642 314.225 374.692 317.748 375.169 319.281C375.519 320.407 376.608 324.254 377.588 327.829C378.801 332.25 379.817 334.236 380.766 334.039C383.763 333.415 400.338 326.548 403.434 324.646C405.235 323.541 407.324 321.442 408.075 319.982C409.744 316.743 410.693 292.571 409.16 292.359C408.61 292.283 404.368 292.47 399.732 292.775ZM826.396 292.492C826.127 292.952 826.139 299.114 826.423 306.185L826.938 319.04L830.176 322.278C832.912 325.014 849.341 332.619 855.539 334.018C856.471 334.228 857.68 331.898 859.27 326.829C860.564 322.704 861.622 318.654 861.622 317.829C861.622 317.004 857.786 311.041 853.096 304.579L844.57 292.829L837.865 292.815C834.177 292.808 830.198 292.544 829.023 292.228C827.847 291.913 826.666 292.031 826.396 292.492ZM861.367 294.456C860.574 295.248 863.023 300.055 865.094 301.774C866.442 302.893 866.66 302.736 866.66 300.64C866.66 299.301 865.742 297.221 864.621 296.018C862.373 293.604 862.268 293.554 861.367 294.456ZM370.528 297.22C369.813 298.789 369.769 300.202 370.4 301.329C371.239 302.828 371.637 302.602 373.511 299.57C376.163 295.28 376.175 294.829 373.639 294.829C372.477 294.829 371.154 295.846 370.528 297.22ZM360.727 312.324C354.762 321.461 354.284 323.544 359.245 318.775C364.176 314.036 368.244 307.013 366.861 305.63C366.105 304.874 364.317 306.825 360.727 312.324ZM869.178 305.8C868.848 306.333 869.24 308.049 870.048 309.612C871.823 313.045 880.722 323.1 881.392 322.431C881.888 321.934 871.053 304.829 870.241 304.829C869.987 304.829 869.508 305.266 869.178 305.8ZM366.12 332.255C363.393 337.43 361.431 341.934 361.761 342.264C362.478 342.98 375.66 336.96 375.66 335.916C375.66 334.472 372.46 324.31 371.778 323.588C371.393 323.181 368.847 327.081 366.12 332.255ZM864.233 323.711C863.338 325.159 860.684 334.039 860.671 335.631C860.665 336.347 861.982 337.394 863.598 337.957C865.214 338.521 868.234 339.847 870.31 340.905C872.385 341.963 874.443 342.829 874.884 342.829C875.325 342.829 874.103 339.688 872.17 335.849C867.079 325.739 864.971 322.516 864.233 323.711ZM350.003 333.02C346.263 337.099 341.796 346.146 340.221 352.829C338.257 361.167 338.235 364.527 340.173 360.329C350.595 337.75 352.778 332.683 352.476 331.776C352.28 331.19 351.168 331.749 350.003 333.02ZM883.66 331.542C883.66 332.126 886.36 338.482 889.66 345.666C892.96 352.85 895.66 359.146 895.66 359.656C895.66 360.166 896.4 361.198 897.304 361.949C898.749 363.148 898.881 363.072 898.392 361.321C898.085 360.225 897.541 357.529 897.181 355.329C896.301 349.946 889.46 335.913 886.248 332.905C884.825 331.571 883.66 330.958 883.66 331.542ZM389.66 335.328C385.535 337.232 381.784 338.924 381.325 339.088C380.633 339.335 381.743 343.734 385.282 354.772C385.545 355.592 388.749 351.113 392.703 344.399C396.529 337.9 399.66 332.413 399.66 332.206C399.66 331.187 396.478 332.181 389.66 335.328ZM836.66 332.193C836.66 332.521 838.174 335.161 840.025 338.06C841.875 340.958 844.835 346.197 846.601 349.702C848.368 353.208 850.183 355.683 850.636 355.202C851.501 354.284 855.806 339.642 855.347 339.182C854.96 338.795 840.478 332.768 838.41 332.133C837.448 331.837 836.66 331.864 836.66 332.193ZM372.648 342.812C370.716 343.813 366.748 345.414 363.831 346.368C360.604 347.423 357.899 349.061 356.924 350.55C355.413 352.855 355.515 353.597 358.687 363.413C360.539 369.142 362.303 373.815 362.607 373.797C362.911 373.779 367.435 371.642 372.66 369.047C382.038 364.39 382.158 364.284 382.029 360.829C381.885 356.993 378.093 342.844 376.904 341.703C376.495 341.311 374.579 341.81 372.648 342.812ZM857.75 344.579C854.501 356.924 853.494 361.953 854.005 363.285C854.468 364.493 872.207 373.829 874.038 373.829C874.308 373.829 876.012 369.307 877.823 363.781C882.121 350.669 881.794 349.988 868.66 344.695C863.435 342.59 859.065 340.858 858.949 340.848C858.832 340.838 858.293 342.517 857.75 344.579ZM352.126 361.884C350.092 365.175 344.063 381.829 344.906 381.829C347.331 381.829 357.66 376.421 357.66 375.152C357.66 373.505 353.653 360.829 353.132 360.829C352.937 360.829 352.485 361.304 352.126 361.884ZM880.752 367.023C877.471 376.739 876.933 375.933 890.41 381.524C891.098 381.81 891.66 381.518 891.66 380.876C891.66 379.06 884.242 360.834 883.502 360.831C883.14 360.83 881.902 363.616 880.752 367.023ZM902.692 370.329C902.585 374.013 905.913 388.51 907.149 389.747C908.497 391.095 908.66 391.074 908.66 389.554C908.66 385.745 902.793 366.846 902.692 370.329ZM330.229 378.99C327.286 388.34 327.123 389.829 329.041 389.829C329.833 389.829 330.875 388.016 331.483 385.579C332.904 379.884 334.055 370.829 333.358 370.829C333.05 370.829 331.642 374.502 330.229 378.99ZM371.16 373.984C367.31 375.686 363.975 377.245 363.75 377.448C363.524 377.65 363.831 379.507 364.432 381.573C365.033 383.639 366.275 387.961 367.192 391.179C368.11 394.396 369.226 396.646 369.673 396.179C370.12 395.711 371.572 392.179 372.899 388.329C374.227 384.479 376.284 378.966 377.472 376.079C378.659 373.192 379.3 370.843 378.895 370.859C378.491 370.876 375.01 372.282 371.16 373.984ZM858.557 374.627C859.623 376.716 861.649 382.408 863.061 387.277C865.563 395.909 866.272 397.599 867.03 396.746C867.707 395.983 872.661 379.942 872.626 378.625C872.596 377.497 859.469 370.765 857.39 370.812C856.966 370.821 857.491 372.538 858.557 374.627ZM351.433 383.241C347.183 385.006 343.465 386.691 343.171 386.985C342.341 387.815 335.66 411.982 335.66 414.154C335.66 415.216 337.953 419.177 340.755 422.958L345.851 429.831L355.652 420.787C368.545 408.89 368.703 408.464 364.802 396.101C363.106 390.726 361.431 385.087 361.079 383.57C360.726 382.052 360.151 380.635 359.799 380.421C359.448 380.207 355.683 381.477 351.433 383.241ZM876.193 381.056C869.243 402.04 868.476 405.452 869.923 408.915C871.209 411.993 890.211 430.734 891.021 429.723C891.194 429.506 892.721 427.278 894.414 424.771C896.106 422.265 898.204 419.622 899.076 418.899C901.166 417.165 901.075 414.318 898.615 404.496C894.447 387.846 894.157 387.29 888.364 384.787C876.495 379.658 876.641 379.703 876.193 381.056ZM638.66 398.376C638.66 414.814 638.538 415.992 636.91 415.311C626.176 410.822 623.319 410.376 605.16 410.358C590.95 410.344 585.992 410.701 581.613 412.053C575.917 413.813 563.787 420.994 562.36 423.451C560.963 425.859 560.166 424.968 558.898 419.579C554.277 399.95 538.259 385.779 517.433 382.897C511.871 382.128 492.775 381.847 459.16 382.041L409.16 382.329L408.904 461.266C408.753 507.716 409.021 540.435 409.555 540.766C410.054 541.076 421.565 541.104 435.136 540.829L459.81 540.329L459.985 511.829L460.16 483.329H469.909H479.659L485.031 494.829C487.986 501.154 494.285 514.316 499.028 524.079L507.652 541.829H598.656H689.66V511.829V481.829H699.183H708.705L722.115 509.329C729.491 524.454 735.806 537.713 736.149 538.794C736.534 540.008 737.993 540.978 739.966 541.331C741.723 541.645 766.11 541.773 794.16 541.615L845.16 541.329L845.431 521.079L845.701 500.829H810.615C777.344 500.829 771.66 500.409 771.66 497.953C771.66 497.511 768.96 492.164 765.66 486.073C762.36 479.981 759.66 474.523 759.66 473.943C759.66 473.362 762.247 471.665 765.41 470.17C768.573 468.675 773.41 465.174 776.16 462.39C794.379 443.947 794.072 412.995 775.492 395.231C769.242 389.255 765.029 386.603 757.011 383.598C751.288 381.454 749.926 381.398 694.91 381.057L638.66 380.708V398.376ZM320.636 416.211C319.444 421.371 318.658 426.434 318.89 427.461C319.403 429.73 324.66 413.39 324.66 409.527C324.66 403.947 322.729 407.155 320.636 416.211ZM911.677 408.579C911.734 414.326 916.846 431.022 918.135 429.672C918.405 429.389 916.356 418.842 914.134 409.079C913.531 406.428 911.652 406.046 911.677 408.579ZM690.41 417.368C689.997 417.805 689.66 424.666 689.66 432.616V447.07L708.637 446.661C725.847 446.291 727.873 446.062 730.387 444.199C737.271 439.1 739.383 431.715 735.908 424.9C732.52 418.255 731.223 417.867 710.152 417.187C699.706 416.85 690.823 416.931 690.41 417.368ZM460.074 418.746C459.846 418.975 459.66 425.612 459.66 433.496V447.829L476.91 447.823C496.355 447.817 500.451 447.055 504.057 442.769C509.368 436.457 509.226 428.735 503.683 422.526L500.83 419.329L480.658 418.829C469.564 418.554 460.301 418.517 460.074 418.746ZM871.9 419.972C872.668 422.024 875.39 436.7 876.202 443.167C876.79 447.857 876.867 447.952 878.723 446.272C881.339 443.904 886.66 435.483 886.66 433.71C886.66 432.381 877.752 423.14 873.223 419.77C871.497 418.486 871.353 418.508 871.9 419.972ZM355.76 426.664L348.36 433.401L353.157 440.615C357.247 446.766 359.66 449.266 359.66 447.351C359.66 447.088 360.583 441.194 361.711 434.254C362.839 427.313 363.627 421.25 363.461 420.78C363.295 420.31 359.83 422.958 355.76 426.664ZM334.144 423.079C333.057 426.081 330.887 442.394 331.492 443.02C331.859 443.401 334.601 441.286 337.585 438.321L343.011 432.93L339.325 427.38C335.443 421.533 334.875 421.062 334.144 423.079ZM897.301 427.411L893.443 432.969L895.801 435.498C897.099 436.89 899.912 439.422 902.053 441.126L905.946 444.224L905.246 439.276C903.687 428.253 902.42 421.83 901.807 421.841C901.451 421.847 899.424 424.354 897.301 427.411ZM595.66 436.551C589.492 438.868 584.723 446.049 584.682 453.079L584.66 456.829H568.16C557.645 456.829 551.66 457.198 551.66 457.846C551.66 459.759 542.166 467.989 535.916 471.493L529.673 474.994L537.214 489.161C541.361 496.954 546.407 506.592 548.427 510.579C550.446 514.566 552.382 517.829 552.727 517.829C553.073 517.829 554.212 515.921 555.258 513.589C557.897 507.706 570.424 495.428 588.16 481.341C605.065 467.915 615.193 458.618 617.26 454.629C620.572 448.239 618.105 440.662 611.621 437.309C608.833 435.867 598.753 435.388 595.66 436.551ZM338.545 442.814C332.665 448.101 328.547 454.049 329.858 455.361C330.115 455.618 336.476 456.123 343.993 456.484C356.566 457.087 357.66 457 357.66 455.398C357.66 453.757 346.732 436.887 345.66 436.874C345.385 436.87 342.183 439.543 338.545 442.814ZM887.679 440.586C886.315 442.645 883.502 446.62 881.429 449.42C879.356 452.22 877.66 455.032 877.66 455.67C877.66 456.937 896.089 457.315 902.91 456.187C908.805 455.213 907.935 452.526 898.988 444.079C894.764 440.091 891.05 436.832 890.734 436.836C890.418 436.84 889.044 438.527 887.679 440.586ZM917.038 445.329C917.782 453.563 918.56 456.829 919.777 456.829C921.802 456.829 919.744 441.697 917.396 439.329C916.74 438.668 916.619 440.699 917.038 445.329ZM317.316 444.933C315.264 451.284 315.132 456.829 317.031 456.829C318.021 456.829 318.598 454.582 319.107 448.739C319.496 444.289 319.624 440.459 319.392 440.228C319.161 439.996 318.226 442.113 317.316 444.933ZM315.175 474.579C314.8 481.041 314.419 487.662 314.327 489.29C314.208 491.391 314.669 492.357 315.91 492.614C317.515 492.946 317.66 491.729 317.66 477.902C317.66 469.612 317.254 462.829 316.759 462.829C316.263 462.829 315.55 468.117 315.175 474.579ZM328.66 478.356V493.882L343.41 493.606L358.16 493.329L358.436 478.079L358.712 462.829H343.686H328.66V478.356ZM877.66 478.329V493.829H892.66H907.66V478.329V462.829H892.66H877.66V478.329ZM919.31 463.879C918.038 466.654 919.013 492.116 920.41 492.58C921.358 492.895 921.636 490.618 921.561 483.162C921.442 471.307 920.318 461.682 919.31 463.879ZM633.16 485.511C630.96 487.426 623.085 493.118 615.66 498.161L602.16 507.329L611.461 507.617C616.576 507.776 624.672 507.776 629.452 507.617L638.143 507.329L637.842 494.853C637.676 487.991 637.455 482.298 637.35 482.203C637.246 482.107 635.36 483.596 633.16 485.511ZM315 500.385C314.139 502.628 315.382 510.437 317.105 513.612L318.58 516.329L318.62 513.726C318.642 512.294 318.371 508.356 318.018 504.976C317.393 499.002 316.217 497.213 315 500.385ZM919.233 500.016C919.006 500.738 918.561 504.929 918.245 509.329C917.704 516.834 917.762 517.161 919.175 514.619C921.174 511.025 922.301 500.343 920.781 499.404C920.157 499.018 919.46 499.293 919.233 500.016ZM329.205 500.756C327.743 503.122 330.382 507.196 337.595 513.709L345.341 520.704L351.402 512.516C360.666 500.001 360.893 500.382 343.986 500.052C335.484 499.886 329.569 500.168 329.205 500.756ZM877.66 501.128C877.66 501.872 880.022 505.609 882.91 509.433C885.798 513.258 888.835 517.386 889.66 518.607C891.151 520.814 891.204 520.786 898.896 513.578C904.791 508.054 906.695 505.615 906.896 503.329L907.16 500.329L892.41 500.052C880.545 499.83 877.66 500.04 877.66 501.128ZM354.283 514.488C347.305 524.064 347.263 523.277 355.137 530.414C358.966 533.884 362.203 536.619 362.331 536.491C362.762 536.06 358.971 510.807 358.388 510.224C358.071 509.907 356.224 511.826 354.283 514.488ZM877.289 511.579C877.01 512.541 876.486 516.479 876.123 520.329C875.76 524.179 875.042 529.301 874.528 531.712C874.013 534.122 873.77 536.273 873.988 536.491C874.526 537.028 887.66 524.467 887.66 523.416C887.66 522.514 878.806 509.829 878.177 509.829C877.967 509.829 877.567 510.617 877.289 511.579ZM329.692 513.496C329.824 516.963 332.611 535.113 333.084 535.587C333.688 536.191 334.189 535.623 339.628 528.162L342.665 523.995L337.093 518.662C331.439 513.252 329.635 511.992 329.692 513.496ZM900.002 517.993C896.789 520.914 894.204 523.763 894.258 524.323C894.312 524.883 896.323 527.97 898.727 531.184L903.097 537.028L903.845 534.229C904.804 530.643 906.724 513.559 906.224 513.059C906.015 512.851 903.216 515.071 900.002 517.993ZM339.332 534.652C333.949 541.833 333.62 542.587 334.239 546.329C334.907 550.373 340.301 569.88 340.858 570.27C342.366 571.324 357.036 577.786 357.307 577.515C358.489 576.334 365.66 554.214 365.66 551.752C365.66 547.97 363.322 542.299 361.295 541.165C360.441 540.687 356.912 537.57 353.451 534.239C349.991 530.908 346.694 527.911 346.124 527.579C345.554 527.247 342.498 530.43 339.332 534.652ZM881.16 535.967C871.446 544.664 870.832 545.539 870.739 550.829C870.691 553.55 877.763 576.266 879.063 577.565C879.217 577.72 883.197 576.066 887.906 573.89L896.468 569.935L899.064 558.863C902.684 543.423 902.577 542.203 896.91 534.431C894.298 530.848 891.71 527.915 891.16 527.913C890.61 527.911 886.11 531.536 881.16 535.967ZM318.39 532.649C319.061 540.572 320.986 550.829 321.801 550.829C323.143 550.829 322.813 544.398 321.082 536.787C319.34 529.127 317.904 526.921 318.39 532.649ZM917.315 530.079C915.852 533.989 915.445 535.637 914.219 542.606C913.515 546.609 913.295 550.103 913.73 550.373C914.923 551.109 915.283 550.084 917.136 540.667C918.775 532.338 918.884 525.885 917.315 530.079ZM409.91 551.491C409.223 551.769 408.66 552.858 408.66 553.912C408.66 555.751 409.696 555.829 434.16 555.829H459.66V553.329V550.829L435.41 550.908C422.073 550.951 410.598 551.214 409.91 551.491ZM508.91 551.488C508.223 551.767 507.66 552.858 507.66 553.912C507.66 555.787 509.647 555.829 598.73 555.829H689.799L689.48 553.579L689.16 551.329L599.66 551.155C550.435 551.06 509.598 551.21 508.91 551.488ZM737.764 551.743C736.997 552.229 736.645 553.348 736.983 554.228C737.536 555.669 743.009 555.829 791.629 555.829H845.66V553.329V550.829L792.41 550.844C763.122 550.853 738.532 551.257 737.764 551.743ZM322.66 557.218C322.66 558.939 326.581 563.79 326.627 562.126C326.677 560.306 324.454 555.829 323.499 555.829C323.038 555.829 322.66 556.454 322.66 557.218ZM910.598 558.492C909.923 560.267 909.919 561.488 910.586 562.155C911.252 562.821 911.931 562.245 912.623 560.427C913.93 556.99 913.933 555.829 912.635 555.829C912.072 555.829 911.155 557.027 910.598 558.492ZM364.213 570.412C362.718 575.683 361.644 580.13 361.827 580.294C362.175 580.606 374.51 587.031 376.042 587.699C376.527 587.911 376.673 586.789 376.366 585.206C375.444 580.451 368.431 560.829 367.655 560.829C367.258 560.829 365.709 565.142 364.213 570.412ZM863.794 573.678C859.67 585.499 858.992 588.299 860.41 587.655C862.461 586.724 874.217 580.54 874.593 580.194C875.216 579.621 869.416 561.829 868.606 561.829C868.234 561.829 866.068 567.161 863.794 573.678ZM325.66 567.885C325.66 570.326 329.715 584.254 330.725 585.279C332.124 586.7 331.886 583.379 330.052 575.893C328.505 569.578 325.66 564.39 325.66 567.885ZM907.256 572.079C905.167 579.589 904.219 586.564 905.456 585.329C906.387 584.399 910.66 570.022 910.66 567.818C910.66 567.274 910.223 566.829 909.688 566.829C909.153 566.829 908.059 569.191 907.256 572.079ZM342.144 577.579C342.528 578.541 344.161 582.874 345.773 587.208C350.164 599.01 350.094 598.958 352.603 592.253C356.574 581.638 356.59 581.706 349.446 578.567C342.107 575.342 341.203 575.219 342.144 577.579ZM886.326 578.936C881.871 581.234 880.641 582.337 881.124 583.597C881.473 584.505 882.523 587.853 883.459 591.037C884.395 594.221 885.523 596.827 885.966 596.828C886.999 596.829 890.086 589.851 892.538 581.974C893.828 577.83 894.077 575.845 893.305 575.877C892.675 575.904 889.534 577.28 886.326 578.936ZM523.5 578.829C521.438 579.006 517.503 578.375 517.5 579.029C517.497 579.684 521.297 590.173 525.754 600.981C533.066 618.715 534.115 620.683 536.498 621.138C541.607 622.115 541.649 622.052 551.663 598.329C553.984 592.829 556.736 586.169 557.777 583.529L559.5 579.029H554.102L548.534 579.329L544.134 590.329C542 596.5 540.802 600.921 540 603C539.711 603.75 539.216 604.829 538.673 604.829C537.574 604.829 534.911 598.222 531.5 588.5C527.255 576.4 529 579 523.5 578.829ZM690.16 579.319C685.003 581.128 679.281 587.541 677.661 593.326C675.973 599.354 676.957 606.953 680.124 612.357C685.689 621.854 700.497 624.787 709.915 618.258C718.195 612.519 721.733 600.304 717.735 591.265C714.894 584.843 713.137 583.004 707.16 580.197C701.513 577.545 696.029 577.261 690.16 579.319ZM735.695 579.671C733.806 580.684 731.402 583.167 730.353 585.189C726.658 592.308 730.265 598.9 740.282 603.337C746.069 605.9 747.059 606.996 746.158 609.836C745.165 612.965 741.058 613.394 735.316 610.968L730.24 608.823L727.971 611.576C724.868 615.342 725.401 616.939 730.66 619.642C734.345 621.536 736.377 621.893 741.878 621.611C749.669 621.212 753.16 619.21 755.99 613.519C759.506 606.449 756.339 601.397 744.488 595.169C740.732 593.196 738.211 591.662 738.211 591.265C738.211 589.139 738.413 588.985 739.5 588C741.453 586.234 744.198 586.597 750.412 588.407C752.313 588.961 752.903 588.493 754.194 585.402C755.035 583.388 755.492 581.366 755.209 580.908C754.5 579.761 746.494 577.829 742.452 577.829C740.624 577.829 737.584 578.658 735.695 579.671ZM487.66 599.829V620.829H499.66H511.66V616.873V612.917L504.5 613L496.853 612.917V607.5V603.829H504.103H511.66V599.829C511.66 595.814 511.687 595.859 511 595.814C510.313 595.769 506.618 595.732 503.51 595.814C496.545 595.997 497.751 595.534 497.751 591.72V586.829H504.705H511.66V582.829V578.829H499.66H487.66V599.829ZM564.66 599.829V620.829H577.22H589.781L589.47 617.079L589.16 613.329L581.91 613.035L574.66 612.741V608.285V603.829H581.717H588.775L588.467 599.579L588.16 595.329H581.66H575.16L574.849 591.008L574.538 586.687L581.344 586.933L588.15 587.18L588.746 583.513C589.074 581.495 589.114 579.616 588.835 579.337C588.555 579.058 583.002 578.829 576.493 578.829H564.66V599.829ZM597.66 599.829V620.829H602.63H607.6L607.88 608.079L608.16 595.329L614.844 605.829C625.009 621.798 624.049 620.829 629.707 620.829H634.66V599.829V578.829H629.66H624.66L624.628 591.579C624.591 606.364 625.358 606.521 614.851 589.579L608.184 578.829H602.922H597.66V599.829ZM641.66 582.829V586.829H646.136H650.612L650.886 603.579L651.16 620.329L656.41 620.631L661.66 620.934V603.936V586.939L666.41 586.634C671.114 586.332 671.163 586.293 671.47 582.579L671.781 578.829H656.72H641.66V582.829ZM359.164 585.058C358.917 585.757 357.328 590.52 355.632 595.642C352.564 604.909 352.558 604.97 354.401 608.142C355.84 610.62 358.022 612.042 364.206 614.531C368.581 616.293 372.88 617.755 373.759 617.781C374.96 617.817 376.041 615.206 378.101 607.288C379.609 601.491 380.596 596.105 380.295 595.319C379.442 593.098 359.709 583.516 359.164 585.058ZM865.952 589.162C858.21 593.081 855.734 594.812 855.702 596.329C855.649 598.827 860.592 616.012 861.71 617.215C862.179 617.721 866.482 616.647 871.724 614.715C879.626 611.804 881.132 610.876 882.462 608.101C883.682 605.556 883.782 604.182 882.934 601.601C880.866 595.305 876.99 584.826 876.577 584.412C876.347 584.183 871.566 586.32 865.952 589.162ZM695.034 587.484C690.282 588.493 685.894 597.066 687.166 602.856C687.531 604.518 688.956 607.216 690.334 608.853C692.498 611.425 695.878 612.357 698.5 612.357C701.122 612.357 705.06 611.3 706.5 609.5C708.5 607 709.821 604.041 709.5 599C709.179 593.959 707.569 592.283 705.611 590.327C703.108 587.825 698.835 586.677 695.034 587.484ZM335.66 596.808C335.66 599.016 342.827 616.383 345.454 620.543C349.345 626.701 350.18 625.819 346.839 619.079C345.271 615.916 342.512 609.61 340.706 605.065C337.675 597.434 335.66 594.136 335.66 596.808ZM897.777 600.396C897.016 602.559 894.426 608.564 892.02 613.739C887.872 622.664 887.009 626.469 890.087 622.26C893.061 618.193 899.771 601.628 899.471 599.094C899.184 596.666 899.053 596.767 897.777 600.396ZM382.777 605.057C381.357 608.744 378.472 619.979 378.854 620.34C379.821 621.256 395.882 626.94 396.306 626.516C396.586 626.236 394.803 622.479 392.344 618.168C389.884 613.856 386.962 608.529 385.85 606.329L383.829 602.329L382.777 605.057ZM849.269 608.585C847.728 611.744 844.887 616.943 842.956 620.138C841.024 623.332 839.673 626.175 839.953 626.456C840.464 626.966 854.075 622.426 856.469 620.947C857.479 620.323 857.298 618.511 855.601 612.244C854.422 607.891 853.145 603.994 852.764 603.585C852.383 603.175 850.81 605.425 849.269 608.585ZM358.66 617.745C358.66 619.228 368.255 636.194 369.289 636.539C369.861 636.729 370.911 634.285 371.622 631.107C372.333 627.929 373.129 624.77 373.391 624.088C373.677 623.343 371.925 622 369.014 620.73C362.574 617.921 358.66 616.793 358.66 617.745ZM870.16 619.498C866.86 620.87 863.838 622.301 863.444 622.677C862.712 623.376 865.171 634.115 866.683 636.829C867.344 638.014 867.747 637.731 868.6 635.486C869.195 633.922 871.476 629.621 873.671 625.928C877.514 619.458 878.494 616.732 876.91 616.916C876.497 616.964 873.46 618.126 870.16 619.498ZM374.897 633.084C373.652 637.619 372.64 641.915 372.647 642.631C372.661 644.012 382 658.362 386.033 663.198C388.268 665.879 389.02 666.101 397.542 666.587L406.66 667.106V654.936C406.66 642.359 405.631 637.707 402.225 634.882C400.638 633.566 379.409 624.822 377.83 624.834C377.461 624.837 376.142 628.549 374.897 633.084ZM846.16 629.336C831.096 635.369 831.127 635.323 830.354 652.432C830.009 660.057 830.049 666.581 830.443 666.929C830.838 667.277 834.985 667.18 839.66 666.713C849.326 665.747 848.681 666.248 858.198 652.329C861.207 647.929 863.658 643.429 863.645 642.329C863.61 639.245 859.158 625.488 858.099 625.193C857.583 625.048 852.21 626.913 846.16 629.336ZM355.693 641.329C357.529 644.629 359.959 649.013 361.095 651.071C363.196 654.877 364.66 655.883 364.66 653.52C364.66 651.571 357.935 640.7 354.953 637.829C352.506 635.472 352.548 635.673 355.693 641.329ZM879.396 640.013C875.745 644.922 871.655 652.305 871.693 653.917C871.742 655.972 875.102 651.651 879.317 644.115C883.239 637.102 883.283 634.787 879.396 640.013ZM410.381 656.952C410.682 662.659 411.115 667.54 411.345 667.797C411.81 668.318 427.99 669.833 428.427 669.396C428.692 669.131 413.96 650.823 411.172 647.952C410.054 646.801 409.924 648.277 410.381 656.952ZM817.519 656.976C813.471 662.006 809.592 666.882 808.897 667.811C807.732 669.37 808.271 669.465 815.897 669.052C820.442 668.806 824.445 668.318 824.794 667.967C825.72 667.034 826.517 647.829 825.629 647.829C825.216 647.829 821.566 651.945 817.519 656.976ZM368.368 659.454C367.588 660.234 368.663 662.829 369.767 662.829C370.91 662.829 370.935 660.117 369.799 659.415C369.326 659.123 368.682 659.14 368.368 659.454ZM865.692 660.768C864.959 662.138 864.982 662.91 865.769 663.396C866.945 664.123 868.619 662.192 868.645 660.079C868.668 658.168 866.858 658.591 865.692 660.768ZM373.66 668.68C373.66 670.071 383.64 682.829 384.729 682.829C386.106 682.829 384.267 679.456 379.413 673.079C375.698 668.198 373.66 666.64 373.66 668.68ZM856.496 673.579C851.181 680.641 849.144 685.149 852.228 683.025C853.625 682.062 862.66 670.363 862.66 669.517C862.66 667.426 859.618 669.431 856.496 673.579ZM391.66 670.283C391.66 671.159 402.853 684.914 405.049 686.737C406.509 687.949 406.66 687.267 406.66 679.451V670.829H402.285C399.879 670.829 396.504 670.548 394.785 670.204C393.066 669.86 391.66 669.896 391.66 670.283ZM834.66 670.729L830.16 671.329L829.87 679.579C829.71 684.117 829.935 687.813 830.37 687.795C831.208 687.758 843.927 672.456 844.493 670.803C844.847 669.77 842.012 669.749 834.66 670.729ZM410.66 682.144C410.66 692.015 410.822 692.868 413.249 695.752L415.838 698.829H426.833H437.829L437.142 687.579C436.664 679.751 436.025 675.988 435.041 675.207C434.263 674.589 429.472 673.77 424.394 673.387C419.315 673.003 414.148 672.447 412.91 672.151C410.685 671.618 410.66 671.729 410.66 682.144ZM815.16 672.917C803.496 674.117 800.919 674.713 800.288 676.356C799.977 677.165 799.418 682.553 799.044 688.328L798.365 698.829H809.56C820.382 698.829 820.837 698.741 823.208 696.183C825.498 693.712 825.66 692.818 825.66 682.683C825.66 674.596 825.341 671.863 824.41 671.962C823.723 672.035 819.56 672.465 815.16 672.917ZM441.274 690.079C441.637 694.617 441.985 698.389 442.047 698.462C442.508 699.005 460.64 699.294 460.43 698.755C460.066 697.822 441.863 681.829 441.165 681.829C440.862 681.829 440.911 685.541 441.274 690.079ZM789.63 686.36C787.747 688.303 783.834 691.785 780.933 694.1C778.033 696.414 775.66 698.564 775.66 698.876C775.66 699.347 793.756 698.925 794.348 698.441C794.451 698.356 794.85 694.809 795.235 690.558C796.061 681.453 795.09 680.727 789.63 686.36ZM393.15 692.809C396.126 698.565 420.163 721.501 418.526 717.023C417.913 715.346 393.523 689.829 392.533 689.829C392.025 689.829 392.302 691.17 393.15 692.809ZM831.16 702.519C824.56 709.427 818.995 715.517 818.794 716.051C817.294 720.039 838.05 701.17 841.752 695.181C846.161 688.046 842.69 690.451 831.16 702.519ZM421.66 703.642C421.66 704.347 438.125 718.829 438.927 718.829C439.811 718.829 438.241 704.213 437.29 703.594C435.741 702.587 421.66 702.631 421.66 703.642ZM798.21 704.079C797.463 706.495 796.611 718.829 797.192 718.829C798.25 718.829 814.66 704.637 814.66 703.721C814.66 702.267 798.664 702.614 798.21 704.079ZM443.308 713.079C443.652 718.166 444.318 722.821 444.789 723.422C445.259 724.023 450.176 727.758 455.714 731.721L465.785 738.927L474.472 736.766C479.251 735.577 483.281 734.497 483.428 734.366C483.575 734.234 482.069 729.453 480.081 723.74C473.331 704.348 472.687 703.838 454.921 703.833L442.682 703.829L443.308 713.079ZM765.588 706.099C762.789 707.985 761.422 710.394 757.501 720.349C754.905 726.938 752.754 732.786 752.721 733.344C752.687 733.903 756.666 735.386 761.561 736.64L770.462 738.92L780.413 731.906C785.885 728.048 790.88 724.269 791.512 723.507C792.144 722.746 792.953 718.007 793.31 712.976L793.959 703.829H781.458C770.116 703.829 768.643 704.04 765.588 706.099ZM483.263 720.579C484.686 724.291 486.301 728.566 486.852 730.079C487.918 733.001 489.494 733.398 494.261 731.946C495.855 731.46 499.073 730.488 501.41 729.786C503.747 729.083 505.66 728.214 505.66 727.854C505.66 727.494 503.973 726.403 501.91 725.43C499.848 724.456 494.469 721.448 489.959 718.744C485.448 716.041 481.514 713.829 481.217 713.829C480.92 713.829 481.841 716.867 483.263 720.579ZM743.665 720.579C737.893 724.017 732.606 726.829 731.915 726.829C731.225 726.829 730.66 727.23 730.66 727.719C730.66 728.716 746.192 733.152 747.802 732.615C749.114 732.178 754.779 717.822 754.426 715.829C754.229 714.72 751.423 715.959 743.665 720.579ZM427.597 727.254C429.714 729.804 439.309 736.829 440.677 736.829C442.563 736.829 438.163 732.35 432.761 728.773C428.001 725.62 425.673 724.935 427.597 727.254ZM803.559 728.773C798.341 732.229 793.771 736.829 795.556 736.829C797.204 736.829 804.536 731.713 807.584 728.435C810.793 724.986 809.056 725.131 803.559 728.773ZM499.66 734.318C492.992 735.884 490.219 736.963 490.358 737.939C490.466 738.704 491.863 742.894 493.461 747.251C496.286 754.951 499.283 758.829 502.41 758.829C505.039 758.829 523.66 752.785 523.66 751.932C523.66 751.486 521.632 746.78 519.152 741.475C513.928 730.294 515.046 730.705 499.66 734.318ZM721.397 733.579C718.979 736.268 712.375 751.961 713.322 752.766C713.783 753.158 718.783 754.763 724.433 756.332L734.706 759.185L737.433 757.154C739.297 755.765 741.2 752.346 743.446 746.346C745.254 741.518 746.553 737.389 746.333 737.169C745.806 736.641 725.904 731.829 724.251 731.829C723.547 731.829 722.262 732.617 721.397 733.579ZM523.818 742.579C525.487 746.291 527.209 749.707 527.646 750.17C528.083 750.632 532.788 749.777 538.1 748.269C543.412 746.761 547.399 745.195 546.959 744.789C546.52 744.383 543.46 743.282 540.16 742.343C536.86 741.404 531.586 739.554 528.44 738.232C525.294 736.91 522.285 735.829 521.753 735.829C521.221 735.829 522.15 738.867 523.818 742.579ZM709.66 737.328C708.285 738.113 703.56 739.932 699.16 741.371C694.76 742.809 690.485 744.229 689.66 744.526C688.834 744.824 691.528 746.121 695.66 747.416C709.28 751.682 708.076 751.938 712.113 743.923C714.064 740.049 715.66 736.643 715.66 736.354C715.66 735.342 712.136 735.914 709.66 737.328ZM478.981 739.776C475.583 740.63 472.516 741.621 472.166 741.978C471.815 742.335 475.653 744.953 480.694 747.795C485.736 750.636 490.101 752.721 490.394 752.428C490.941 751.881 486.827 739.773 485.755 738.776C485.428 738.471 482.38 738.921 478.981 739.776ZM749.737 740.079C749.257 741.316 747.925 744.691 746.777 747.579C745.628 750.467 745.02 752.813 745.425 752.793C747.266 752.701 764.138 743.223 763.965 742.378C763.823 741.682 753.86 738.245 750.885 737.864C750.734 737.845 750.218 738.842 749.737 740.079ZM445.905 741.079C446.131 741.767 447.406 742.455 448.738 742.608C451.083 742.879 451.099 742.839 449.219 741.358C446.868 739.506 445.345 739.378 445.905 741.079ZM787.91 740.491C786.22 741.173 786.321 742.829 788.053 742.829C788.819 742.829 789.705 742.154 790.022 741.329C790.61 739.796 790.118 739.6 787.91 740.491ZM454.846 746.886C455.253 748.107 469.963 757.819 470.552 757.255C471.034 756.792 467.475 753.704 462.16 749.973C457.47 746.682 454.337 745.359 454.846 746.886ZM776.16 748.81C770.43 752.204 766.159 755.662 766.848 756.35C767.515 757.017 781.66 747.838 781.66 746.737C781.66 745.516 781.827 745.453 776.16 748.81ZM541.708 751.27C535.959 753.071 531.119 754.951 530.953 755.449C530.787 755.947 532.152 759.949 533.986 764.342L537.32 772.329L544.057 774.607C547.763 775.86 553.92 777.542 557.74 778.346L564.685 779.807L570.542 775.568C573.763 773.236 577.239 770.834 578.265 770.229C579.957 769.232 579.301 768.226 571.217 759.419C566.314 754.078 561.513 749.285 560.547 748.769C557.597 747.19 552.629 747.849 541.708 751.27ZM666.422 758.072C661.067 763.713 656.679 768.557 656.672 768.836C656.666 769.115 658.573 770.569 660.91 772.067C663.247 773.566 666.792 775.949 668.786 777.363L672.412 779.935L680.786 777.837C698.846 773.313 698.124 773.767 702.657 764.095C704.868 759.375 706.561 755.406 706.419 755.275C706.277 755.144 701.023 753.414 694.745 751.433C677.522 745.996 677.991 745.886 666.422 758.072ZM569.66 751.587C569.66 752.024 572.797 755.496 576.632 759.301L583.604 766.22L590.803 761.301L598.002 756.382L586.081 754.14C579.524 752.907 573.148 751.649 571.91 751.345C570.672 751.04 569.66 751.149 569.66 751.587ZM655.66 752.887C650.985 753.882 645.36 754.997 643.16 755.363L639.16 756.03L642.869 759.25C644.909 761.021 648.185 763.335 650.149 764.393L653.721 766.316L660.144 759.323C663.677 755.476 666.588 751.992 666.614 751.579C666.673 750.616 665.88 750.711 655.66 752.887ZM515.91 758.958C512.473 760.027 509.66 761.269 509.66 761.719C509.66 762.66 530.795 771.028 531.468 770.354C531.713 770.109 530.631 766.966 529.064 763.369C525.824 755.932 525.739 755.904 515.91 758.958ZM595.41 762.91C590.598 766.234 586.665 769.263 586.67 769.641C586.676 770.02 589.947 773.816 593.939 778.079C602.958 787.709 605.102 788.153 606.012 780.579C607.155 771.066 606.793 756.827 605.41 756.848C604.723 756.858 600.223 759.587 595.41 762.91ZM613.14 759.079C612.833 760.316 612.712 766.954 612.871 773.829L613.16 786.329L617.91 786.634L622.66 786.939V771.884V756.829H618.179C614.364 756.829 613.615 757.163 613.14 759.079ZM629.675 770.079C629.684 777.367 630.085 783.952 630.568 784.714C631.131 785.604 632.33 785.878 633.917 785.479C636.929 784.724 650.31 770.052 649.052 768.885C646.353 766.382 631.984 756.829 630.917 756.829C629.97 756.829 629.664 760.099 629.675 770.079ZM707.219 763.279C705.67 766.923 704.626 770.128 704.898 770.4C705.622 771.124 726.66 762.835 726.66 761.826C726.66 761.011 718.956 758.438 712.88 757.223C710.173 756.682 709.898 756.976 707.219 763.279ZM482.66 763.196C482.66 765.135 508.654 777.361 510.991 776.522C511.634 776.291 505.907 773.116 498.264 769.465C485.409 763.326 482.66 762.222 482.66 763.196ZM742.66 767.18C737.985 769.494 731.685 772.482 728.66 773.819C724.364 775.717 723.645 776.327 725.373 776.604C727.999 777.024 747.14 768.642 751.274 765.261C755.665 761.67 752.256 762.43 742.66 767.18ZM647.794 777.903C644.843 781.218 642.665 784.168 642.955 784.457C643.71 785.212 663.773 782.116 664.803 781.086C665.469 780.42 654.813 771.747 653.459 771.852C653.294 771.865 650.745 774.588 647.794 777.903ZM575.348 776.539C572.43 778.701 570.897 780.466 571.453 781.022C572.519 782.088 590.142 785.08 592.541 784.603C594.625 784.188 584.133 772.795 581.765 772.901C580.882 772.941 577.995 774.578 575.348 776.539ZM704.702 782.892C696.732 784.978 693.472 786.829 697.766 786.829C700.575 786.829 712.642 783.041 714.11 781.698C715.54 780.39 713.051 780.706 704.702 782.892ZM528.66 784.274C532.785 785.665 537.285 786.776 538.66 786.745C543.14 786.642 532.754 782.713 526.66 782.205L521.16 781.746L528.66 784.274ZM555.198 790.768C554.832 791.359 555.124 792.054 555.847 792.312C559.614 793.656 579.66 797.468 579.66 796.84C579.66 795.999 568.024 792.315 562.339 791.356C560.237 791.002 557.92 790.482 557.19 790.202C556.46 789.922 555.563 790.177 555.198 790.768ZM669.66 792.256C662.51 793.846 656.398 795.901 657.008 796.511C657.749 797.251 680.603 792.73 681.228 791.719C681.976 790.509 676.343 790.771 669.66 792.256ZM589.21 796.693C591.028 798.345 596.989 799.829 601.809 799.829C609.135 799.829 607.627 798.216 599.119 796.951C589.99 795.593 587.941 795.539 589.21 796.693ZM640.66 796.381C639.835 796.558 637.022 796.983 634.41 797.327C631.132 797.758 629.66 798.416 629.66 799.452C629.66 800.659 630.587 800.834 634.41 800.349C640.563 799.568 646.66 797.737 646.66 796.669C646.66 795.858 643.76 795.719 640.66 796.381ZM613.659 799.579C613.66 800.397 615.244 800.829 618.243 800.829C624.125 800.829 623.771 798.602 617.864 798.443C615.105 798.368 613.659 798.759 613.659 799.579Z" fill="white"/>
</svg>
